<svg xmlns="http://www.w3.org/2000/svg" style="display: none;">

    <symbol id="icon-phone" viewBox="0 0 512 512">
      <path d="M511.2 387l-23.25 100.8c-3.266 14.25-15.79 24.22-30.46 24.22C205.2 512 0 306.8 0 54.5c0-14.66 9.969-27.2 24.22-30.45l100.8-23.25C139.7-2.602 154.7 5.018 160.8 18.92l46.52 108.5c5.438 12.78 1.77 27.67-8.98 36.45L144.5 207.1c33.98 69.22 90.26 125.5 159.5 159.5l44.08-53.8c8.688-10.78 23.69-14.51 36.47-8.975l108.5 46.51C506.1 357.2 514.6 372.4 511.2 387z"/>
    </symbol>

    <symbol id="icon-arrow-right" viewBox="0 0 18 16">
      <path d="M17.3827 8.83994C17.9016 8.31496 17.8966 7.47161 17.3717 6.95272L10.7278 0.385977C10.2028 -0.132913 9.35948 -0.127991 8.84059 0.39699C8.3217 0.921972 8.32663 1.76533 8.85161 2.28422L13.2027 6.58484L1.32797 6.65709C0.590773 6.66139 -0.00433801 7.26349 -3.57278e-05 8.00069C0.00426653 8.73789 0.606364 9.333 1.34356 9.3287L13.2183 9.25645L8.91769 13.6076C8.3988 14.1325 8.40372 14.9759 8.9287 15.4948C9.45369 16.0137 10.297 16.0088 10.8159 15.4838L17.3827 8.83994Z"/>
    </symbol>

</svg>
